<?xml version="1.0" standalone="no"?><svg xmlns="http://www.w3.org/2000/svg" viewBox="0 0 1440 320"><path fill="#0066ff" fill-opacity="1" d="M0,256L30,266.7C60,277,120,299,180,298.7C240,299,300,277,360,250.7C420,224,480,192,540,154.7C600,117,660,75,720,74.7C780,75,840,117,900,160C960,203,1020,245,1080,240C1140,235,1200,181,1260,176C1320,171,1380,213,1410,234.7L1440,256L1440,320L1410,320C1380,320,1320,320,1260,320C1200,320,1140,320,1080,320C1020,320,960,320,900,320C840,320,780,320,720,320C660,320,600,320,540,320C480,320,420,320,360,320C300,320,240,320,180,320C120,320,60,320,30,320L0,320Z"></path></svg>